<mxfile host="app.diagrams.net" modified="2023-12-21T10:58:55.663Z" agent="Mozilla/5.0 (Windows NT 10.0; Win64; x64) AppleWebKit/537.36 (KHTML, like Gecko) Chrome/120.0.0.0 Safari/537.36" etag="u9CNEYPsbXoZjEyxQ6lP" version="22.1.11" type="github">
  <diagram id="C5RBs43oDa-KdzZeNtuy" name="Page-1">
    <mxGraphModel dx="2155" dy="1155" grid="1" gridSize="10" guides="1" tooltips="1" connect="1" arrows="1" fold="1" page="1" pageScale="1" pageWidth="827" pageHeight="1169" math="0" shadow="0">
      <root>
        <mxCell id="WIyWlLk6GJQsqaUBKTNV-0" />
        <mxCell id="WIyWlLk6GJQsqaUBKTNV-1" parent="WIyWlLk6GJQsqaUBKTNV-0" />
        <mxCell id="WIyWlLk6GJQsqaUBKTNV-2" value="" style="rounded=0;html=1;jettySize=auto;orthogonalLoop=1;fontSize=11;endArrow=classic;endFill=1;endSize=8;strokeWidth=1;shadow=0;labelBackgroundColor=default;edgeStyle=orthogonalEdgeStyle;" parent="WIyWlLk6GJQsqaUBKTNV-1" source="WIyWlLk6GJQsqaUBKTNV-3" target="WIyWlLk6GJQsqaUBKTNV-6" edge="1">
          <mxGeometry relative="1" as="geometry" />
        </mxCell>
        <mxCell id="WIyWlLk6GJQsqaUBKTNV-3" value="Deal请求" style="rounded=1;whiteSpace=wrap;html=1;fontSize=12;glass=0;strokeWidth=1;shadow=0;" parent="WIyWlLk6GJQsqaUBKTNV-1" vertex="1">
          <mxGeometry x="160" width="120" height="40" as="geometry" />
        </mxCell>
        <mxCell id="WIyWlLk6GJQsqaUBKTNV-4" value="Yes" style="rounded=0;html=1;jettySize=auto;orthogonalLoop=1;fontSize=11;endArrow=classic;endFill=1;endSize=8;strokeWidth=1;shadow=0;labelBackgroundColor=default;edgeStyle=orthogonalEdgeStyle;entryX=0.5;entryY=0;entryDx=0;entryDy=0;" parent="WIyWlLk6GJQsqaUBKTNV-1" source="WIyWlLk6GJQsqaUBKTNV-6" target="WIyWlLk6GJQsqaUBKTNV-12" edge="1">
          <mxGeometry relative="1" as="geometry">
            <mxPoint as="offset" />
            <mxPoint x="220" y="210" as="targetPoint" />
          </mxGeometry>
        </mxCell>
        <mxCell id="WIyWlLk6GJQsqaUBKTNV-5" value="No" style="edgeStyle=orthogonalEdgeStyle;rounded=0;html=1;jettySize=auto;orthogonalLoop=1;fontSize=11;endArrow=classic;endFill=1;endSize=8;strokeWidth=1;shadow=0;labelBackgroundColor=default;entryX=0;entryY=0.5;entryDx=0;entryDy=0;" parent="WIyWlLk6GJQsqaUBKTNV-1" source="WIyWlLk6GJQsqaUBKTNV-6" target="DPb7wRXF61A1M562Ad9j-0" edge="1">
          <mxGeometry x="-0.04" relative="1" as="geometry">
            <mxPoint as="offset" />
            <mxPoint x="320" y="130" as="targetPoint" />
          </mxGeometry>
        </mxCell>
        <mxCell id="DPb7wRXF61A1M562Ad9j-109" value="" style="edgeStyle=orthogonalEdgeStyle;rounded=0;orthogonalLoop=1;jettySize=auto;html=1;" parent="WIyWlLk6GJQsqaUBKTNV-1" source="WIyWlLk6GJQsqaUBKTNV-6" target="WIyWlLk6GJQsqaUBKTNV-12" edge="1">
          <mxGeometry relative="1" as="geometry" />
        </mxCell>
        <mxCell id="DPb7wRXF61A1M562Ad9j-111" value="Yes" style="edgeStyle=orthogonalEdgeStyle;rounded=0;orthogonalLoop=1;jettySize=auto;html=1;entryX=0.5;entryY=0;entryDx=0;entryDy=0;" parent="WIyWlLk6GJQsqaUBKTNV-1" source="WIyWlLk6GJQsqaUBKTNV-6" target="DPb7wRXF61A1M562Ad9j-110" edge="1">
          <mxGeometry relative="1" as="geometry" />
        </mxCell>
        <mxCell id="WIyWlLk6GJQsqaUBKTNV-6" value="1.新用户判定" style="rhombus;whiteSpace=wrap;html=1;shadow=0;fontFamily=Helvetica;fontSize=12;align=center;strokeWidth=1;spacing=6;spacingTop=-4;rounded=1;" parent="WIyWlLk6GJQsqaUBKTNV-1" vertex="1">
          <mxGeometry x="160" y="80" width="120" height="80" as="geometry" />
        </mxCell>
        <mxCell id="WIyWlLk6GJQsqaUBKTNV-12" value="开始处理deal1-新用户逻辑" style="rounded=1;whiteSpace=wrap;html=1;fontSize=12;glass=0;strokeWidth=1;shadow=0;" parent="WIyWlLk6GJQsqaUBKTNV-1" vertex="1">
          <mxGeometry x="80" y="200" width="120" height="40" as="geometry" />
        </mxCell>
        <mxCell id="WJAeF4iGQMadBWUu6b0e-10" value="" style="edgeStyle=orthogonalEdgeStyle;rounded=0;orthogonalLoop=1;jettySize=auto;html=1;" edge="1" parent="WIyWlLk6GJQsqaUBKTNV-1" source="DPb7wRXF61A1M562Ad9j-0" target="DPb7wRXF61A1M562Ad9j-6">
          <mxGeometry relative="1" as="geometry" />
        </mxCell>
        <mxCell id="DPb7wRXF61A1M562Ad9j-0" value="2.回归用户判定" style="rhombus;whiteSpace=wrap;html=1;shadow=0;fontFamily=Helvetica;fontSize=12;align=center;strokeWidth=1;spacing=6;spacingTop=-4;rounded=1;" parent="WIyWlLk6GJQsqaUBKTNV-1" vertex="1">
          <mxGeometry x="720" y="80" width="120" height="80" as="geometry" />
        </mxCell>
        <mxCell id="DPb7wRXF61A1M562Ad9j-98" value="No" style="edgeStyle=orthogonalEdgeStyle;rounded=0;orthogonalLoop=1;jettySize=auto;html=1;" parent="WIyWlLk6GJQsqaUBKTNV-1" source="DPb7wRXF61A1M562Ad9j-1" target="DPb7wRXF61A1M562Ad9j-97" edge="1">
          <mxGeometry relative="1" as="geometry" />
        </mxCell>
        <mxCell id="DPb7wRXF61A1M562Ad9j-100" value="Yes" style="edgeStyle=orthogonalEdgeStyle;rounded=0;orthogonalLoop=1;jettySize=auto;html=1;entryX=0.5;entryY=0;entryDx=0;entryDy=0;" parent="WIyWlLk6GJQsqaUBKTNV-1" source="DPb7wRXF61A1M562Ad9j-1" target="DPb7wRXF61A1M562Ad9j-99" edge="1">
          <mxGeometry relative="1" as="geometry" />
        </mxCell>
        <mxCell id="DPb7wRXF61A1M562Ad9j-1" value="3.非付费用户判定" style="rhombus;whiteSpace=wrap;html=1;shadow=0;fontFamily=Helvetica;fontSize=12;align=center;strokeWidth=1;spacing=6;spacingTop=-4;rounded=1;" parent="WIyWlLk6GJQsqaUBKTNV-1" vertex="1">
          <mxGeometry x="1200" y="80" width="120" height="80" as="geometry" />
        </mxCell>
        <mxCell id="DPb7wRXF61A1M562Ad9j-4" value="No" style="edgeStyle=orthogonalEdgeStyle;rounded=0;html=1;jettySize=auto;orthogonalLoop=1;fontSize=11;endArrow=classic;endFill=1;endSize=8;strokeWidth=1;shadow=0;labelBackgroundColor=default;entryX=0;entryY=0.5;entryDx=0;entryDy=0;exitX=1;exitY=0.5;exitDx=0;exitDy=0;" parent="WIyWlLk6GJQsqaUBKTNV-1" source="DPb7wRXF61A1M562Ad9j-0" target="DPb7wRXF61A1M562Ad9j-1" edge="1">
          <mxGeometry x="0.0435" relative="1" as="geometry">
            <mxPoint as="offset" />
            <mxPoint x="480" y="140" as="sourcePoint" />
            <mxPoint x="730" y="140" as="targetPoint" />
          </mxGeometry>
        </mxCell>
        <mxCell id="DPb7wRXF61A1M562Ad9j-5" value="Yes" style="rounded=0;html=1;jettySize=auto;orthogonalLoop=1;fontSize=11;endArrow=classic;endFill=1;endSize=8;strokeWidth=1;shadow=0;labelBackgroundColor=default;edgeStyle=orthogonalEdgeStyle;exitX=0.5;exitY=1;exitDx=0;exitDy=0;entryX=0.5;entryY=0;entryDx=0;entryDy=0;" parent="WIyWlLk6GJQsqaUBKTNV-1" source="DPb7wRXF61A1M562Ad9j-0" target="DPb7wRXF61A1M562Ad9j-6" edge="1">
          <mxGeometry relative="1" as="geometry">
            <mxPoint as="offset" />
            <mxPoint x="430" y="180" as="sourcePoint" />
            <mxPoint x="770" y="240" as="targetPoint" />
          </mxGeometry>
        </mxCell>
        <mxCell id="DPb7wRXF61A1M562Ad9j-6" value="回归deal-正常" style="rounded=1;whiteSpace=wrap;html=1;fontSize=12;glass=0;strokeWidth=1;shadow=0;" parent="WIyWlLk6GJQsqaUBKTNV-1" vertex="1">
          <mxGeometry x="640" y="200" width="120" height="40" as="geometry" />
        </mxCell>
        <mxCell id="DPb7wRXF61A1M562Ad9j-62" value="Pool" style="swimlane;childLayout=stackLayout;resizeParent=1;resizeParentMax=0;startSize=20;horizontal=0;horizontalStack=1;" parent="WIyWlLk6GJQsqaUBKTNV-1" vertex="1">
          <mxGeometry x="59" y="560" width="1820" height="1320" as="geometry" />
        </mxCell>
        <mxCell id="DPb7wRXF61A1M562Ad9j-63" value="deal1-新用户" style="swimlane;startSize=20;" parent="DPb7wRXF61A1M562Ad9j-62" vertex="1">
          <mxGeometry x="20" width="360" height="1320" as="geometry" />
        </mxCell>
        <mxCell id="DPb7wRXF61A1M562Ad9j-8" value="deal1-新用户判定逻辑" style="rounded=1;whiteSpace=wrap;html=1;fontSize=12;glass=0;strokeWidth=1;shadow=0;" parent="DPb7wRXF61A1M562Ad9j-63" vertex="1">
          <mxGeometry x="121.00000000000001" y="40" width="120" height="40" as="geometry" />
        </mxCell>
        <mxCell id="DPb7wRXF61A1M562Ad9j-20" value="spin次数&amp;lt;n1&lt;br&gt;且未付费" style="rhombus;whiteSpace=wrap;html=1;rounded=1;glass=0;strokeWidth=1;shadow=0;" parent="DPb7wRXF61A1M562Ad9j-63" vertex="1">
          <mxGeometry x="121.00000000000001" y="120" width="120" height="80" as="geometry" />
        </mxCell>
        <mxCell id="DPb7wRXF61A1M562Ad9j-21" value="" style="edgeStyle=orthogonalEdgeStyle;rounded=0;orthogonalLoop=1;jettySize=auto;html=1;" parent="DPb7wRXF61A1M562Ad9j-63" source="DPb7wRXF61A1M562Ad9j-8" target="DPb7wRXF61A1M562Ad9j-20" edge="1">
          <mxGeometry relative="1" as="geometry" />
        </mxCell>
        <mxCell id="DPb7wRXF61A1M562Ad9j-24" value="推送价格档位a1" style="whiteSpace=wrap;html=1;rounded=1;glass=0;strokeWidth=1;shadow=0;" parent="DPb7wRXF61A1M562Ad9j-63" vertex="1">
          <mxGeometry x="121.00000000000001" y="240" width="120" height="40" as="geometry" />
        </mxCell>
        <mxCell id="DPb7wRXF61A1M562Ad9j-23" value="Yes" style="edgeStyle=orthogonalEdgeStyle;rounded=0;orthogonalLoop=1;jettySize=auto;html=1;entryX=0.5;entryY=0;entryDx=0;entryDy=0;labelBackgroundColor=default;" parent="DPb7wRXF61A1M562Ad9j-63" source="DPb7wRXF61A1M562Ad9j-20" target="DPb7wRXF61A1M562Ad9j-24" edge="1">
          <mxGeometry relative="1" as="geometry">
            <mxPoint x="181" y="300" as="targetPoint" />
            <mxPoint as="offset" />
          </mxGeometry>
        </mxCell>
        <mxCell id="DPb7wRXF61A1M562Ad9j-46" value="No" style="edgeStyle=orthogonalEdgeStyle;rounded=0;orthogonalLoop=1;jettySize=auto;html=1;entryX=0.5;entryY=0;entryDx=0;entryDy=0;" parent="DPb7wRXF61A1M562Ad9j-63" source="DPb7wRXF61A1M562Ad9j-45" target="DPb7wRXF61A1M562Ad9j-20" edge="1">
          <mxGeometry x="-0.0003" relative="1" as="geometry">
            <mxPoint x="111.00000000000001" y="160" as="targetPoint" />
            <Array as="points">
              <mxPoint x="271" y="360" />
              <mxPoint x="271" y="100" />
              <mxPoint x="181" y="100" />
            </Array>
            <mxPoint as="offset" />
          </mxGeometry>
        </mxCell>
        <mxCell id="DPb7wRXF61A1M562Ad9j-45" value="spin次数超出&lt;br&gt;push_list" style="rhombus;whiteSpace=wrap;html=1;rounded=1;glass=0;strokeWidth=1;shadow=0;" parent="DPb7wRXF61A1M562Ad9j-63" vertex="1">
          <mxGeometry x="121.00000000000001" y="320" width="120" height="80" as="geometry" />
        </mxCell>
        <mxCell id="DPb7wRXF61A1M562Ad9j-40" style="edgeStyle=orthogonalEdgeStyle;rounded=0;orthogonalLoop=1;jettySize=auto;html=1;entryX=0.5;entryY=0;entryDx=0;entryDy=0;" parent="DPb7wRXF61A1M562Ad9j-63" source="DPb7wRXF61A1M562Ad9j-24" target="DPb7wRXF61A1M562Ad9j-45" edge="1">
          <mxGeometry relative="1" as="geometry">
            <mxPoint x="181" y="320" as="targetPoint" />
          </mxGeometry>
        </mxCell>
        <mxCell id="DPb7wRXF61A1M562Ad9j-48" value="回归正常deal1逻辑" style="whiteSpace=wrap;html=1;rounded=1;glass=0;strokeWidth=1;shadow=0;" parent="DPb7wRXF61A1M562Ad9j-63" vertex="1">
          <mxGeometry x="121.00000000000001" y="440" width="120" height="40" as="geometry" />
        </mxCell>
        <mxCell id="DPb7wRXF61A1M562Ad9j-49" value="Yes" style="edgeStyle=orthogonalEdgeStyle;rounded=0;orthogonalLoop=1;jettySize=auto;html=1;" parent="DPb7wRXF61A1M562Ad9j-63" source="DPb7wRXF61A1M562Ad9j-45" target="DPb7wRXF61A1M562Ad9j-48" edge="1">
          <mxGeometry relative="1" as="geometry" />
        </mxCell>
        <mxCell id="DPb7wRXF61A1M562Ad9j-71" style="edgeStyle=orthogonalEdgeStyle;orthogonalLoop=1;jettySize=auto;html=1;entryX=0;entryY=0.5;entryDx=0;entryDy=0;dashed=1;curved=1;" parent="DPb7wRXF61A1M562Ad9j-63" source="DPb7wRXF61A1M562Ad9j-32" target="DPb7wRXF61A1M562Ad9j-24" edge="1">
          <mxGeometry relative="1" as="geometry" />
        </mxCell>
        <mxCell id="DPb7wRXF61A1M562Ad9j-72" style="edgeStyle=orthogonalEdgeStyle;orthogonalLoop=1;jettySize=auto;html=1;entryX=0;entryY=0.5;entryDx=0;entryDy=0;dashed=1;curved=1;" parent="DPb7wRXF61A1M562Ad9j-63" source="DPb7wRXF61A1M562Ad9j-32" target="DPb7wRXF61A1M562Ad9j-20" edge="1">
          <mxGeometry relative="1" as="geometry" />
        </mxCell>
        <mxCell id="DPb7wRXF61A1M562Ad9j-32" value="配置地址&lt;br&gt;dea1_base.push_list" style="text;html=1;strokeColor=none;fillColor=none;align=center;verticalAlign=middle;whiteSpace=wrap;rounded=0;" parent="DPb7wRXF61A1M562Ad9j-63" vertex="1">
          <mxGeometry x="11" y="200" width="149" height="40" as="geometry" />
        </mxCell>
        <mxCell id="DPb7wRXF61A1M562Ad9j-64" value="deal1-用户升档" style="swimlane;startSize=20;" parent="DPb7wRXF61A1M562Ad9j-62" vertex="1">
          <mxGeometry x="380" width="360" height="1320" as="geometry" />
        </mxCell>
        <mxCell id="DPb7wRXF61A1M562Ad9j-80" value="" style="edgeStyle=orthogonalEdgeStyle;rounded=0;orthogonalLoop=1;jettySize=auto;html=1;" parent="DPb7wRXF61A1M562Ad9j-64" source="DPb7wRXF61A1M562Ad9j-77" target="DPb7wRXF61A1M562Ad9j-79" edge="1">
          <mxGeometry relative="1" as="geometry" />
        </mxCell>
        <mxCell id="DPb7wRXF61A1M562Ad9j-77" value="开始用户deal1升档" style="rounded=1;whiteSpace=wrap;html=1;" parent="DPb7wRXF61A1M562Ad9j-64" vertex="1">
          <mxGeometry x="120" y="40" width="120" height="40" as="geometry" />
        </mxCell>
        <mxCell id="DPb7wRXF61A1M562Ad9j-83" value="No" style="edgeStyle=orthogonalEdgeStyle;rounded=0;orthogonalLoop=1;jettySize=auto;html=1;" parent="DPb7wRXF61A1M562Ad9j-64" source="DPb7wRXF61A1M562Ad9j-79" target="DPb7wRXF61A1M562Ad9j-82" edge="1">
          <mxGeometry relative="1" as="geometry" />
        </mxCell>
        <mxCell id="DPb7wRXF61A1M562Ad9j-92" value="Yes" style="edgeStyle=orthogonalEdgeStyle;orthogonalLoop=1;jettySize=auto;html=1;entryX=0.5;entryY=0;entryDx=0;entryDy=0;curved=1;" parent="DPb7wRXF61A1M562Ad9j-64" source="DPb7wRXF61A1M562Ad9j-79" target="DPb7wRXF61A1M562Ad9j-89" edge="1">
          <mxGeometry relative="1" as="geometry">
            <Array as="points">
              <mxPoint x="281" y="160" />
            </Array>
          </mxGeometry>
        </mxCell>
        <mxCell id="DPb7wRXF61A1M562Ad9j-79" value="如果任意购买金额&amp;gt;=end_buy_price" style="rhombus;whiteSpace=wrap;html=1;rounded=1;" parent="DPb7wRXF61A1M562Ad9j-64" vertex="1">
          <mxGeometry x="120" y="120" width="120" height="80" as="geometry" />
        </mxCell>
        <mxCell id="DPb7wRXF61A1M562Ad9j-86" value="No" style="edgeStyle=orthogonalEdgeStyle;rounded=0;orthogonalLoop=1;jettySize=auto;html=1;" parent="DPb7wRXF61A1M562Ad9j-64" source="DPb7wRXF61A1M562Ad9j-82" target="DPb7wRXF61A1M562Ad9j-85" edge="1">
          <mxGeometry relative="1" as="geometry" />
        </mxCell>
        <mxCell id="DPb7wRXF61A1M562Ad9j-91" value="Yes" style="edgeStyle=orthogonalEdgeStyle;orthogonalLoop=1;jettySize=auto;html=1;entryX=0.5;entryY=1;entryDx=0;entryDy=0;curved=1;" parent="DPb7wRXF61A1M562Ad9j-64" source="DPb7wRXF61A1M562Ad9j-82" target="DPb7wRXF61A1M562Ad9j-89" edge="1">
          <mxGeometry relative="1" as="geometry">
            <Array as="points">
              <mxPoint x="281" y="280" />
            </Array>
          </mxGeometry>
        </mxCell>
        <mxCell id="DPb7wRXF61A1M562Ad9j-82" value="如果第一笔付费距今&amp;gt;end_buy_any小时" style="rhombus;whiteSpace=wrap;html=1;rounded=1;" parent="DPb7wRXF61A1M562Ad9j-64" vertex="1">
          <mxGeometry x="120" y="240" width="120" height="80" as="geometry" />
        </mxCell>
        <mxCell id="DPb7wRXF61A1M562Ad9j-95" value="" style="edgeStyle=orthogonalEdgeStyle;rounded=0;orthogonalLoop=1;jettySize=auto;html=1;" parent="DPb7wRXF61A1M562Ad9j-64" source="DPb7wRXF61A1M562Ad9j-85" target="DPb7wRXF61A1M562Ad9j-94" edge="1">
          <mxGeometry relative="1" as="geometry" />
        </mxCell>
        <mxCell id="DPb7wRXF61A1M562Ad9j-85" value="直接匹配dea1_higher_price" style="whiteSpace=wrap;html=1;rounded=1;" parent="DPb7wRXF61A1M562Ad9j-64" vertex="1">
          <mxGeometry x="120" y="360" width="120" height="40" as="geometry" />
        </mxCell>
        <mxCell id="DPb7wRXF61A1M562Ad9j-89" value="结束deal1推送" style="whiteSpace=wrap;html=1;rounded=1;" parent="DPb7wRXF61A1M562Ad9j-64" vertex="1">
          <mxGeometry x="221" y="200" width="120" height="40" as="geometry" />
        </mxCell>
        <mxCell id="DPb7wRXF61A1M562Ad9j-96" style="edgeStyle=orthogonalEdgeStyle;orthogonalLoop=1;jettySize=auto;html=1;curved=1;" parent="DPb7wRXF61A1M562Ad9j-64" source="DPb7wRXF61A1M562Ad9j-94" edge="1">
          <mxGeometry relative="1" as="geometry">
            <mxPoint x="121" y="60" as="targetPoint" />
            <Array as="points">
              <mxPoint x="61" y="460" />
              <mxPoint x="61" y="60" />
            </Array>
          </mxGeometry>
        </mxCell>
        <mxCell id="DPb7wRXF61A1M562Ad9j-94" value="CD结束重新请求" style="whiteSpace=wrap;html=1;rounded=1;" parent="DPb7wRXF61A1M562Ad9j-64" vertex="1">
          <mxGeometry x="120" y="440" width="120" height="40" as="geometry" />
        </mxCell>
        <mxCell id="DPb7wRXF61A1M562Ad9j-65" value="deal1-正常" style="swimlane;startSize=20;" parent="DPb7wRXF61A1M562Ad9j-62" vertex="1">
          <mxGeometry x="740" width="360" height="1320" as="geometry" />
        </mxCell>
        <mxCell id="DPb7wRXF61A1M562Ad9j-117" style="edgeStyle=orthogonalEdgeStyle;rounded=0;orthogonalLoop=1;jettySize=auto;html=1;entryX=0.5;entryY=0;entryDx=0;entryDy=0;" parent="DPb7wRXF61A1M562Ad9j-65" source="DPb7wRXF61A1M562Ad9j-112" target="DPb7wRXF61A1M562Ad9j-115" edge="1">
          <mxGeometry relative="1" as="geometry" />
        </mxCell>
        <mxCell id="DPb7wRXF61A1M562Ad9j-112" value="deal1-正常" style="rounded=1;whiteSpace=wrap;html=1;" parent="DPb7wRXF61A1M562Ad9j-65" vertex="1">
          <mxGeometry x="120" y="40" width="120" height="40" as="geometry" />
        </mxCell>
        <mxCell id="DPb7wRXF61A1M562Ad9j-120" style="edgeStyle=orthogonalEdgeStyle;rounded=0;orthogonalLoop=1;jettySize=auto;html=1;entryX=0.5;entryY=0;entryDx=0;entryDy=0;" parent="DPb7wRXF61A1M562Ad9j-65" source="DPb7wRXF61A1M562Ad9j-113" target="DPb7wRXF61A1M562Ad9j-118" edge="1">
          <mxGeometry relative="1" as="geometry" />
        </mxCell>
        <mxCell id="DPb7wRXF61A1M562Ad9j-113" value="正常deal1 (0.99/99.99/4小时)" style="rounded=1;whiteSpace=wrap;html=1;" parent="DPb7wRXF61A1M562Ad9j-65" vertex="1">
          <mxGeometry x="120" y="240" width="120" height="40" as="geometry" />
        </mxCell>
        <mxCell id="DPb7wRXF61A1M562Ad9j-116" value="No" style="edgeStyle=orthogonalEdgeStyle;rounded=0;orthogonalLoop=1;jettySize=auto;html=1;entryX=0.5;entryY=0;entryDx=0;entryDy=0;" parent="DPb7wRXF61A1M562Ad9j-65" source="DPb7wRXF61A1M562Ad9j-115" target="DPb7wRXF61A1M562Ad9j-113" edge="1">
          <mxGeometry relative="1" as="geometry" />
        </mxCell>
        <mxCell id="DPb7wRXF61A1M562Ad9j-115" value="如果玩家任意付费" style="rhombus;whiteSpace=wrap;html=1;rounded=1;" parent="DPb7wRXF61A1M562Ad9j-65" vertex="1">
          <mxGeometry x="120" y="120" width="120" height="80" as="geometry" />
        </mxCell>
        <mxCell id="DPb7wRXF61A1M562Ad9j-119" style="edgeStyle=orthogonalEdgeStyle;orthogonalLoop=1;jettySize=auto;html=1;entryX=1;entryY=0.5;entryDx=0;entryDy=0;curved=1;" parent="DPb7wRXF61A1M562Ad9j-65" source="DPb7wRXF61A1M562Ad9j-118" target="DPb7wRXF61A1M562Ad9j-112" edge="1">
          <mxGeometry relative="1" as="geometry">
            <Array as="points">
              <mxPoint x="291" y="340" />
              <mxPoint x="291" y="60" />
            </Array>
          </mxGeometry>
        </mxCell>
        <mxCell id="DPb7wRXF61A1M562Ad9j-118" value="CD结束重新请求" style="whiteSpace=wrap;html=1;rounded=1;" parent="DPb7wRXF61A1M562Ad9j-65" vertex="1">
          <mxGeometry x="120" y="320" width="120" height="40" as="geometry" />
        </mxCell>
        <mxCell id="WJAeF4iGQMadBWUu6b0e-30" style="edgeStyle=orthogonalEdgeStyle;orthogonalLoop=1;jettySize=auto;html=1;entryX=0;entryY=0.5;entryDx=0;entryDy=0;dashed=1;fillColor=#f8cecc;strokeColor=#b85450;rounded=1;" edge="1" parent="DPb7wRXF61A1M562Ad9j-65" source="DPb7wRXF61A1M562Ad9j-89" target="DPb7wRXF61A1M562Ad9j-165">
          <mxGeometry relative="1" as="geometry">
            <Array as="points">
              <mxPoint x="21" y="220" />
              <mxPoint x="21" y="400" />
              <mxPoint x="411" y="400" />
              <mxPoint x="411" y="60" />
            </Array>
          </mxGeometry>
        </mxCell>
        <mxCell id="DPb7wRXF61A1M562Ad9j-163" value="deal2-正常" style="swimlane;startSize=20;" parent="DPb7wRXF61A1M562Ad9j-62" vertex="1">
          <mxGeometry x="1100" width="360" height="1320" as="geometry" />
        </mxCell>
        <mxCell id="DPb7wRXF61A1M562Ad9j-164" style="edgeStyle=orthogonalEdgeStyle;rounded=0;orthogonalLoop=1;jettySize=auto;html=1;entryX=0.5;entryY=0;entryDx=0;entryDy=0;" parent="DPb7wRXF61A1M562Ad9j-163" source="DPb7wRXF61A1M562Ad9j-165" target="DPb7wRXF61A1M562Ad9j-169" edge="1">
          <mxGeometry relative="1" as="geometry" />
        </mxCell>
        <mxCell id="DPb7wRXF61A1M562Ad9j-165" value="deal2-正常" style="rounded=1;whiteSpace=wrap;html=1;" parent="DPb7wRXF61A1M562Ad9j-163" vertex="1">
          <mxGeometry x="120" y="40" width="120" height="40" as="geometry" />
        </mxCell>
        <mxCell id="DPb7wRXF61A1M562Ad9j-168" value="Yes" style="edgeStyle=orthogonalEdgeStyle;rounded=0;orthogonalLoop=1;jettySize=auto;html=1;entryX=0.5;entryY=0;entryDx=0;entryDy=0;" parent="DPb7wRXF61A1M562Ad9j-163" source="DPb7wRXF61A1M562Ad9j-169" edge="1">
          <mxGeometry relative="1" as="geometry">
            <mxPoint x="180" y="240" as="targetPoint" />
            <Array as="points">
              <mxPoint x="180" y="210" />
              <mxPoint x="180" y="210" />
            </Array>
          </mxGeometry>
        </mxCell>
        <mxCell id="DPb7wRXF61A1M562Ad9j-191" value="No" style="edgeStyle=orthogonalEdgeStyle;rounded=0;orthogonalLoop=1;jettySize=auto;html=1;entryX=0.5;entryY=0;entryDx=0;entryDy=0;" parent="DPb7wRXF61A1M562Ad9j-163" source="DPb7wRXF61A1M562Ad9j-169" target="DPb7wRXF61A1M562Ad9j-189" edge="1">
          <mxGeometry relative="1" as="geometry">
            <Array as="points">
              <mxPoint x="271" y="160" />
            </Array>
          </mxGeometry>
        </mxCell>
        <mxCell id="DPb7wRXF61A1M562Ad9j-169" value="距离上次任意deal推送时间&amp;gt;n小时" style="rhombus;whiteSpace=wrap;html=1;rounded=1;" parent="DPb7wRXF61A1M562Ad9j-163" vertex="1">
          <mxGeometry x="120" y="120" width="120" height="80" as="geometry" />
        </mxCell>
        <mxCell id="DPb7wRXF61A1M562Ad9j-170" style="edgeStyle=orthogonalEdgeStyle;orthogonalLoop=1;jettySize=auto;html=1;entryX=1;entryY=0.5;entryDx=0;entryDy=0;rounded=1;" parent="DPb7wRXF61A1M562Ad9j-163" source="DPb7wRXF61A1M562Ad9j-171" target="DPb7wRXF61A1M562Ad9j-165" edge="1">
          <mxGeometry relative="1" as="geometry">
            <Array as="points">
              <mxPoint x="341" y="990" />
              <mxPoint x="341" y="60" />
            </Array>
          </mxGeometry>
        </mxCell>
        <mxCell id="DPb7wRXF61A1M562Ad9j-171" value="CD结束重新请求" style="whiteSpace=wrap;html=1;rounded=1;" parent="DPb7wRXF61A1M562Ad9j-163" vertex="1">
          <mxGeometry x="120" y="970" width="120" height="40" as="geometry" />
        </mxCell>
        <mxCell id="DPb7wRXF61A1M562Ad9j-185" value="No" style="edgeStyle=orthogonalEdgeStyle;rounded=0;orthogonalLoop=1;jettySize=auto;html=1;entryX=0.5;entryY=0;entryDx=0;entryDy=0;" parent="DPb7wRXF61A1M562Ad9j-163" source="DPb7wRXF61A1M562Ad9j-172" target="DPb7wRXF61A1M562Ad9j-184" edge="1">
          <mxGeometry relative="1" as="geometry" />
        </mxCell>
        <mxCell id="DPb7wRXF61A1M562Ad9j-190" value="Yes" style="edgeStyle=orthogonalEdgeStyle;rounded=0;orthogonalLoop=1;jettySize=auto;html=1;entryX=0.5;entryY=1;entryDx=0;entryDy=0;" parent="DPb7wRXF61A1M562Ad9j-163" source="DPb7wRXF61A1M562Ad9j-172" target="DPb7wRXF61A1M562Ad9j-189" edge="1">
          <mxGeometry relative="1" as="geometry">
            <Array as="points">
              <mxPoint x="271" y="280" />
            </Array>
          </mxGeometry>
        </mxCell>
        <mxCell id="DPb7wRXF61A1M562Ad9j-172" value="上个任意deal和现在时间跨越UTC0的8点" style="rhombus;whiteSpace=wrap;html=1;rounded=1;" parent="DPb7wRXF61A1M562Ad9j-163" vertex="1">
          <mxGeometry x="120" y="240" width="120" height="80" as="geometry" />
        </mxCell>
        <mxCell id="DPb7wRXF61A1M562Ad9j-184" value="deal2-正常" style="rounded=1;whiteSpace=wrap;html=1;" parent="DPb7wRXF61A1M562Ad9j-163" vertex="1">
          <mxGeometry x="120" y="360" width="120" height="40" as="geometry" />
        </mxCell>
        <mxCell id="DPb7wRXF61A1M562Ad9j-189" value="推送deal1.5" style="rounded=1;whiteSpace=wrap;html=1;" parent="DPb7wRXF61A1M562Ad9j-163" vertex="1">
          <mxGeometry x="211" y="200" width="120" height="40" as="geometry" />
        </mxCell>
        <mxCell id="DPb7wRXF61A1M562Ad9j-175" value="deal1.5-正常" style="swimlane;startSize=20;" parent="DPb7wRXF61A1M562Ad9j-62" vertex="1">
          <mxGeometry x="1460" width="360" height="1320" as="geometry" />
        </mxCell>
        <mxCell id="DPb7wRXF61A1M562Ad9j-176" style="edgeStyle=orthogonalEdgeStyle;rounded=0;orthogonalLoop=1;jettySize=auto;html=1;entryX=0.5;entryY=0;entryDx=0;entryDy=0;" parent="DPb7wRXF61A1M562Ad9j-175" source="DPb7wRXF61A1M562Ad9j-178" target="DPb7wRXF61A1M562Ad9j-180" edge="1">
          <mxGeometry relative="1" as="geometry" />
        </mxCell>
        <mxCell id="DPb7wRXF61A1M562Ad9j-177" style="edgeStyle=orthogonalEdgeStyle;rounded=0;orthogonalLoop=1;jettySize=auto;html=1;entryX=0.5;entryY=0;entryDx=0;entryDy=0;" parent="DPb7wRXF61A1M562Ad9j-175" source="DPb7wRXF61A1M562Ad9j-178" target="DPb7wRXF61A1M562Ad9j-183" edge="1">
          <mxGeometry relative="1" as="geometry" />
        </mxCell>
        <mxCell id="DPb7wRXF61A1M562Ad9j-178" value="deal1.5-正常" style="rounded=1;whiteSpace=wrap;html=1;" parent="DPb7wRXF61A1M562Ad9j-175" vertex="1">
          <mxGeometry x="120" y="40" width="120" height="40" as="geometry" />
        </mxCell>
        <mxCell id="DPb7wRXF61A1M562Ad9j-179" value="Yes" style="edgeStyle=orthogonalEdgeStyle;rounded=0;orthogonalLoop=1;jettySize=auto;html=1;entryX=0.5;entryY=0;entryDx=0;entryDy=0;" parent="DPb7wRXF61A1M562Ad9j-175" source="DPb7wRXF61A1M562Ad9j-180" edge="1">
          <mxGeometry relative="1" as="geometry">
            <mxPoint x="180" y="240" as="targetPoint" />
          </mxGeometry>
        </mxCell>
        <mxCell id="DPb7wRXF61A1M562Ad9j-180" value="距离上次任意deal推送时间&amp;gt;n小时" style="rhombus;whiteSpace=wrap;html=1;rounded=1;" parent="DPb7wRXF61A1M562Ad9j-175" vertex="1">
          <mxGeometry x="41" y="120" width="120" height="80" as="geometry" />
        </mxCell>
        <mxCell id="DPb7wRXF61A1M562Ad9j-181" style="edgeStyle=orthogonalEdgeStyle;orthogonalLoop=1;jettySize=auto;html=1;entryX=1;entryY=0.5;entryDx=0;entryDy=0;curved=1;" parent="DPb7wRXF61A1M562Ad9j-175" source="DPb7wRXF61A1M562Ad9j-182" target="DPb7wRXF61A1M562Ad9j-178" edge="1">
          <mxGeometry relative="1" as="geometry">
            <Array as="points">
              <mxPoint x="351" y="990" />
              <mxPoint x="351" y="60" />
            </Array>
          </mxGeometry>
        </mxCell>
        <mxCell id="DPb7wRXF61A1M562Ad9j-182" value="CD结束重新请求" style="whiteSpace=wrap;html=1;rounded=1;" parent="DPb7wRXF61A1M562Ad9j-175" vertex="1">
          <mxGeometry x="120" y="970" width="120" height="40" as="geometry" />
        </mxCell>
        <mxCell id="DPb7wRXF61A1M562Ad9j-183" value="上个任意deal和现在时间跨越UTC0的8点" style="rhombus;whiteSpace=wrap;html=1;rounded=1;" parent="DPb7wRXF61A1M562Ad9j-175" vertex="1">
          <mxGeometry x="201" y="120" width="120" height="80" as="geometry" />
        </mxCell>
        <mxCell id="DPb7wRXF61A1M562Ad9j-81" value="用户付费" style="edgeStyle=orthogonalEdgeStyle;orthogonalLoop=1;jettySize=auto;html=1;entryX=0;entryY=0.5;entryDx=0;entryDy=0;curved=1;dashed=1;strokeColor=#FF0000;fontColor=#FF0000;" parent="DPb7wRXF61A1M562Ad9j-62" source="DPb7wRXF61A1M562Ad9j-20" target="DPb7wRXF61A1M562Ad9j-77" edge="1">
          <mxGeometry relative="1" as="geometry">
            <mxPoint as="offset" />
          </mxGeometry>
        </mxCell>
        <mxCell id="DPb7wRXF61A1M562Ad9j-121" value="用户付费" style="edgeStyle=orthogonalEdgeStyle;orthogonalLoop=1;jettySize=auto;html=1;entryX=1;entryY=0.5;entryDx=0;entryDy=0;curved=1;dashed=1;fillColor=#f8cecc;strokeColor=#b85450;fontColor=#FF0000;" parent="DPb7wRXF61A1M562Ad9j-62" source="DPb7wRXF61A1M562Ad9j-115" target="DPb7wRXF61A1M562Ad9j-77" edge="1">
          <mxGeometry relative="1" as="geometry">
            <mxPoint as="offset" />
          </mxGeometry>
        </mxCell>
        <mxCell id="DPb7wRXF61A1M562Ad9j-192" style="edgeStyle=orthogonalEdgeStyle;orthogonalLoop=1;jettySize=auto;html=1;entryX=0;entryY=0.5;entryDx=0;entryDy=0;curved=1;" parent="DPb7wRXF61A1M562Ad9j-62" source="DPb7wRXF61A1M562Ad9j-189" target="DPb7wRXF61A1M562Ad9j-178" edge="1">
          <mxGeometry relative="1" as="geometry" />
        </mxCell>
        <mxCell id="WJAeF4iGQMadBWUu6b0e-0" value="出新手期" style="edgeStyle=orthogonalEdgeStyle;orthogonalLoop=1;jettySize=auto;html=1;entryX=0;entryY=0.5;entryDx=0;entryDy=0;curved=1;strokeColor=#FF0000;dashed=1;fontColor=#FF0000;" edge="1" parent="DPb7wRXF61A1M562Ad9j-62" source="DPb7wRXF61A1M562Ad9j-48" target="DPb7wRXF61A1M562Ad9j-112">
          <mxGeometry x="-0.6721" relative="1" as="geometry">
            <Array as="points">
              <mxPoint x="201" y="520" />
              <mxPoint x="781" y="520" />
              <mxPoint x="781" y="60" />
            </Array>
            <mxPoint as="offset" />
          </mxGeometry>
        </mxCell>
        <mxCell id="DPb7wRXF61A1M562Ad9j-102" value="Yes" style="edgeStyle=orthogonalEdgeStyle;rounded=0;orthogonalLoop=1;jettySize=auto;html=1;entryX=0.5;entryY=0;entryDx=0;entryDy=0;" parent="WIyWlLk6GJQsqaUBKTNV-1" source="DPb7wRXF61A1M562Ad9j-97" target="DPb7wRXF61A1M562Ad9j-101" edge="1">
          <mxGeometry relative="1" as="geometry" />
        </mxCell>
        <mxCell id="DPb7wRXF61A1M562Ad9j-104" value="" style="edgeStyle=orthogonalEdgeStyle;rounded=0;orthogonalLoop=1;jettySize=auto;html=1;" parent="WIyWlLk6GJQsqaUBKTNV-1" source="DPb7wRXF61A1M562Ad9j-97" target="DPb7wRXF61A1M562Ad9j-103" edge="1">
          <mxGeometry relative="1" as="geometry" />
        </mxCell>
        <mxCell id="DPb7wRXF61A1M562Ad9j-97" value="4.deal1升档判定" style="rhombus;whiteSpace=wrap;html=1;shadow=0;fontFamily=Helvetica;fontSize=12;align=center;strokeWidth=1;spacing=6;spacingTop=-4;rounded=1;" parent="WIyWlLk6GJQsqaUBKTNV-1" vertex="1">
          <mxGeometry x="1400" y="80" width="120" height="80" as="geometry" />
        </mxCell>
        <mxCell id="DPb7wRXF61A1M562Ad9j-99" value="deal1-正常" style="rounded=1;whiteSpace=wrap;html=1;fontSize=12;glass=0;strokeWidth=1;shadow=0;" parent="WIyWlLk6GJQsqaUBKTNV-1" vertex="1">
          <mxGeometry x="1200" y="200" width="120" height="40" as="geometry" />
        </mxCell>
        <mxCell id="DPb7wRXF61A1M562Ad9j-101" value="deal1-用户升档" style="rounded=1;whiteSpace=wrap;html=1;fontSize=12;glass=0;strokeWidth=1;shadow=0;" parent="WIyWlLk6GJQsqaUBKTNV-1" vertex="1">
          <mxGeometry x="1399" y="200" width="120" height="40" as="geometry" />
        </mxCell>
        <mxCell id="DPb7wRXF61A1M562Ad9j-106" style="edgeStyle=orthogonalEdgeStyle;rounded=0;orthogonalLoop=1;jettySize=auto;html=1;" parent="WIyWlLk6GJQsqaUBKTNV-1" source="DPb7wRXF61A1M562Ad9j-103" target="DPb7wRXF61A1M562Ad9j-105" edge="1">
          <mxGeometry relative="1" as="geometry" />
        </mxCell>
        <mxCell id="DPb7wRXF61A1M562Ad9j-103" value="5.推送时间判定" style="rhombus;whiteSpace=wrap;html=1;shadow=0;fontFamily=Helvetica;fontSize=12;align=center;strokeWidth=1;spacing=6;spacingTop=-4;rounded=1;" parent="WIyWlLk6GJQsqaUBKTNV-1" vertex="1">
          <mxGeometry x="1600" y="80" width="120" height="80" as="geometry" />
        </mxCell>
        <mxCell id="DPb7wRXF61A1M562Ad9j-105" value="deal1." style="rounded=1;whiteSpace=wrap;html=1;fontSize=12;glass=0;strokeWidth=1;shadow=0;" parent="WIyWlLk6GJQsqaUBKTNV-1" vertex="1">
          <mxGeometry x="1600" y="200" width="120" height="40" as="geometry" />
        </mxCell>
        <mxCell id="WJAeF4iGQMadBWUu6b0e-2" value="" style="edgeStyle=orthogonalEdgeStyle;rounded=0;orthogonalLoop=1;jettySize=auto;html=1;" edge="1" parent="WIyWlLk6GJQsqaUBKTNV-1" source="DPb7wRXF61A1M562Ad9j-110" target="WJAeF4iGQMadBWUu6b0e-1">
          <mxGeometry relative="1" as="geometry" />
        </mxCell>
        <mxCell id="DPb7wRXF61A1M562Ad9j-110" value="处理新机台解锁" style="rounded=1;whiteSpace=wrap;html=1;fontSize=12;glass=0;strokeWidth=1;shadow=0;" parent="WIyWlLk6GJQsqaUBKTNV-1" vertex="1">
          <mxGeometry x="240" y="200" width="120" height="40" as="geometry" />
        </mxCell>
        <mxCell id="WJAeF4iGQMadBWUu6b0e-4" value="Yes" style="edgeStyle=orthogonalEdgeStyle;rounded=0;orthogonalLoop=1;jettySize=auto;html=1;exitX=0;exitY=0.5;exitDx=0;exitDy=0;" edge="1" parent="WIyWlLk6GJQsqaUBKTNV-1" source="WJAeF4iGQMadBWUu6b0e-1" target="WJAeF4iGQMadBWUu6b0e-3">
          <mxGeometry relative="1" as="geometry" />
        </mxCell>
        <mxCell id="WJAeF4iGQMadBWUu6b0e-15" value="No" style="edgeStyle=orthogonalEdgeStyle;rounded=0;orthogonalLoop=1;jettySize=auto;html=1;entryX=0.5;entryY=0;entryDx=0;entryDy=0;exitX=1;exitY=0.5;exitDx=0;exitDy=0;" edge="1" parent="WIyWlLk6GJQsqaUBKTNV-1" source="WJAeF4iGQMadBWUu6b0e-1" target="WJAeF4iGQMadBWUu6b0e-14">
          <mxGeometry relative="1" as="geometry" />
        </mxCell>
        <mxCell id="WJAeF4iGQMadBWUu6b0e-1" value="如果新增&amp;lt;N天,且存在需要付费解锁新机台" style="rhombus;whiteSpace=wrap;html=1;rounded=1;glass=0;strokeWidth=1;shadow=0;" vertex="1" parent="WIyWlLk6GJQsqaUBKTNV-1">
          <mxGeometry x="240" y="280" width="120" height="80" as="geometry" />
        </mxCell>
        <mxCell id="WJAeF4iGQMadBWUu6b0e-23" value="" style="edgeStyle=orthogonalEdgeStyle;rounded=0;orthogonalLoop=1;jettySize=auto;html=1;" edge="1" parent="WIyWlLk6GJQsqaUBKTNV-1" source="WJAeF4iGQMadBWUu6b0e-3" target="WJAeF4iGQMadBWUu6b0e-22">
          <mxGeometry relative="1" as="geometry" />
        </mxCell>
        <mxCell id="WJAeF4iGQMadBWUu6b0e-3" value="赠送所有需要解锁新机台(类似购买)" style="whiteSpace=wrap;html=1;rounded=1;glass=0;strokeWidth=1;shadow=0;" vertex="1" parent="WIyWlLk6GJQsqaUBKTNV-1">
          <mxGeometry x="160" y="400" width="120" height="40" as="geometry" />
        </mxCell>
        <mxCell id="WJAeF4iGQMadBWUu6b0e-8" value="赠送时机" style="edgeStyle=orthogonalEdgeStyle;orthogonalLoop=1;jettySize=auto;html=1;entryX=1;entryY=0.5;entryDx=0;entryDy=0;exitX=0.5;exitY=0;exitDx=0;exitDy=0;curved=1;dashed=1;" edge="1" parent="WIyWlLk6GJQsqaUBKTNV-1" source="WJAeF4iGQMadBWUu6b0e-6" target="DPb7wRXF61A1M562Ad9j-110">
          <mxGeometry relative="1" as="geometry" />
        </mxCell>
        <mxCell id="WJAeF4iGQMadBWUu6b0e-6" value="&lt;ul&gt;&lt;li&gt;进入大厅完成赠送不显示付费标识&lt;/li&gt;&lt;li&gt;点击deal完成赠送不显示deal解锁&lt;/li&gt;&lt;li&gt;返回大厅完成赠送不显示解锁标识&lt;/li&gt;&lt;li&gt;每日utc0-8:00刷新机台列表时deal&amp;amp;icon不显示解锁标识&lt;/li&gt;&lt;/ul&gt;" style="text;strokeColor=none;fillColor=none;html=1;whiteSpace=wrap;verticalAlign=middle;overflow=hidden;" vertex="1" parent="WIyWlLk6GJQsqaUBKTNV-1">
          <mxGeometry x="360" y="240" width="240" height="100" as="geometry" />
        </mxCell>
        <mxCell id="WJAeF4iGQMadBWUu6b0e-21" value="" style="edgeStyle=orthogonalEdgeStyle;rounded=0;orthogonalLoop=1;jettySize=auto;html=1;" edge="1" parent="WIyWlLk6GJQsqaUBKTNV-1" source="WJAeF4iGQMadBWUu6b0e-11" target="WJAeF4iGQMadBWUu6b0e-20">
          <mxGeometry relative="1" as="geometry" />
        </mxCell>
        <mxCell id="WJAeF4iGQMadBWUu6b0e-11" value="处理新机台赠送" style="rounded=1;whiteSpace=wrap;html=1;fontSize=12;glass=0;strokeWidth=1;shadow=0;" vertex="1" parent="WIyWlLk6GJQsqaUBKTNV-1">
          <mxGeometry x="800" y="200" width="120" height="40" as="geometry" />
        </mxCell>
        <mxCell id="WJAeF4iGQMadBWUu6b0e-12" value="Yes" style="edgeStyle=orthogonalEdgeStyle;rounded=0;orthogonalLoop=1;jettySize=auto;html=1;entryX=0.475;entryY=-0.125;entryDx=0;entryDy=0;entryPerimeter=0;" edge="1" parent="WIyWlLk6GJQsqaUBKTNV-1" source="DPb7wRXF61A1M562Ad9j-0" target="WJAeF4iGQMadBWUu6b0e-11">
          <mxGeometry relative="1" as="geometry" />
        </mxCell>
        <mxCell id="WJAeF4iGQMadBWUu6b0e-14" value="不赠送新机台" style="whiteSpace=wrap;html=1;rounded=1;glass=0;strokeWidth=1;shadow=0;" vertex="1" parent="WIyWlLk6GJQsqaUBKTNV-1">
          <mxGeometry x="320" y="400" width="120" height="40" as="geometry" />
        </mxCell>
        <mxCell id="WJAeF4iGQMadBWUu6b0e-17" value="判定条件" style="edgeStyle=orthogonalEdgeStyle;orthogonalLoop=1;jettySize=auto;html=1;entryX=1;entryY=0;entryDx=0;entryDy=0;dashed=1;curved=1;" edge="1" parent="WIyWlLk6GJQsqaUBKTNV-1" source="WJAeF4iGQMadBWUu6b0e-16" target="WIyWlLk6GJQsqaUBKTNV-6">
          <mxGeometry relative="1" as="geometry" />
        </mxCell>
        <mxCell id="WJAeF4iGQMadBWUu6b0e-16" value="&lt;ul&gt;&lt;li&gt;新注册用户&lt;/li&gt;&lt;li&gt;新增但是spin次数在deal1范围内&lt;/li&gt;&lt;li&gt;新增N天内的用户会特殊赠送新机台&lt;/li&gt;&lt;/ul&gt;" style="text;strokeColor=none;fillColor=none;html=1;whiteSpace=wrap;verticalAlign=middle;overflow=hidden;" vertex="1" parent="WIyWlLk6GJQsqaUBKTNV-1">
          <mxGeometry x="320" width="240" height="100" as="geometry" />
        </mxCell>
        <mxCell id="WJAeF4iGQMadBWUu6b0e-18" value="赠送时机" style="edgeStyle=orthogonalEdgeStyle;orthogonalLoop=1;jettySize=auto;html=1;exitX=0.5;exitY=0;exitDx=0;exitDy=0;curved=1;dashed=1;entryX=1;entryY=0.5;entryDx=0;entryDy=0;" edge="1" parent="WIyWlLk6GJQsqaUBKTNV-1" source="WJAeF4iGQMadBWUu6b0e-19" target="WJAeF4iGQMadBWUu6b0e-11">
          <mxGeometry relative="1" as="geometry">
            <mxPoint x="960" y="190" as="targetPoint" />
          </mxGeometry>
        </mxCell>
        <mxCell id="WJAeF4iGQMadBWUu6b0e-19" value="&lt;ul&gt;&lt;li&gt;进入大厅完成赠送不显示付费标识&lt;/li&gt;&lt;li&gt;点击deal完成赠送不显示deal解锁&lt;/li&gt;&lt;li&gt;返回大厅完成赠送不显示解锁标识&lt;/li&gt;&lt;li&gt;每日utc0-8:00刷新机台列表时deal&amp;amp;icon不显示解锁标识&lt;/li&gt;&lt;/ul&gt;" style="text;strokeColor=none;fillColor=none;html=1;whiteSpace=wrap;verticalAlign=middle;overflow=hidden;" vertex="1" parent="WIyWlLk6GJQsqaUBKTNV-1">
          <mxGeometry x="920" y="240" width="240" height="100" as="geometry" />
        </mxCell>
        <mxCell id="WJAeF4iGQMadBWUu6b0e-20" value="如果离开天数&amp;gt;N天,&lt;br&gt;且存在需要付费解锁新机台" style="rhombus;whiteSpace=wrap;html=1;rounded=1;glass=0;strokeWidth=1;shadow=0;" vertex="1" parent="WIyWlLk6GJQsqaUBKTNV-1">
          <mxGeometry x="800" y="280" width="120" height="80" as="geometry" />
        </mxCell>
        <mxCell id="WJAeF4iGQMadBWUu6b0e-22" value="一旦赠送之后不需要再次付费解锁" style="whiteSpace=wrap;html=1;rounded=1;glass=0;strokeWidth=1;shadow=0;" vertex="1" parent="WIyWlLk6GJQsqaUBKTNV-1">
          <mxGeometry x="160" y="480" width="120" height="40" as="geometry" />
        </mxCell>
        <mxCell id="WJAeF4iGQMadBWUu6b0e-24" value="Yes" style="edgeStyle=orthogonalEdgeStyle;rounded=0;orthogonalLoop=1;jettySize=auto;html=1;exitX=0;exitY=0.5;exitDx=0;exitDy=0;" edge="1" parent="WIyWlLk6GJQsqaUBKTNV-1" target="WJAeF4iGQMadBWUu6b0e-26" source="WJAeF4iGQMadBWUu6b0e-20">
          <mxGeometry relative="1" as="geometry">
            <mxPoint x="800" y="320" as="sourcePoint" />
          </mxGeometry>
        </mxCell>
        <mxCell id="WJAeF4iGQMadBWUu6b0e-25" value="" style="edgeStyle=orthogonalEdgeStyle;rounded=0;orthogonalLoop=1;jettySize=auto;html=1;" edge="1" parent="WIyWlLk6GJQsqaUBKTNV-1" source="WJAeF4iGQMadBWUu6b0e-26" target="WJAeF4iGQMadBWUu6b0e-27">
          <mxGeometry relative="1" as="geometry" />
        </mxCell>
        <mxCell id="WJAeF4iGQMadBWUu6b0e-26" value="赠送所有需要解锁新机台(类似购买)" style="whiteSpace=wrap;html=1;rounded=1;glass=0;strokeWidth=1;shadow=0;" vertex="1" parent="WIyWlLk6GJQsqaUBKTNV-1">
          <mxGeometry x="720" y="400" width="120" height="40" as="geometry" />
        </mxCell>
        <mxCell id="WJAeF4iGQMadBWUu6b0e-27" value="一旦赠送之后不需要再次付费解锁" style="whiteSpace=wrap;html=1;rounded=1;glass=0;strokeWidth=1;shadow=0;" vertex="1" parent="WIyWlLk6GJQsqaUBKTNV-1">
          <mxGeometry x="720" y="480" width="120" height="40" as="geometry" />
        </mxCell>
        <mxCell id="WJAeF4iGQMadBWUu6b0e-28" value="No" style="edgeStyle=orthogonalEdgeStyle;rounded=0;orthogonalLoop=1;jettySize=auto;html=1;entryX=0.5;entryY=0;entryDx=0;entryDy=0;exitX=1;exitY=0.5;exitDx=0;exitDy=0;" edge="1" parent="WIyWlLk6GJQsqaUBKTNV-1" target="WJAeF4iGQMadBWUu6b0e-29" source="WJAeF4iGQMadBWUu6b0e-20">
          <mxGeometry relative="1" as="geometry">
            <mxPoint x="920" y="320" as="sourcePoint" />
          </mxGeometry>
        </mxCell>
        <mxCell id="WJAeF4iGQMadBWUu6b0e-29" value="不赠送新机台" style="whiteSpace=wrap;html=1;rounded=1;glass=0;strokeWidth=1;shadow=0;" vertex="1" parent="WIyWlLk6GJQsqaUBKTNV-1">
          <mxGeometry x="880" y="400" width="120" height="40" as="geometry" />
        </mxCell>
        <mxCell id="WJAeF4iGQMadBWUu6b0e-31" value="判定条件" style="edgeStyle=orthogonalEdgeStyle;orthogonalLoop=1;jettySize=auto;html=1;entryX=1;entryY=0;entryDx=0;entryDy=0;dashed=1;curved=1;" edge="1" parent="WIyWlLk6GJQsqaUBKTNV-1" source="WJAeF4iGQMadBWUu6b0e-32" target="DPb7wRXF61A1M562Ad9j-0">
          <mxGeometry relative="1" as="geometry">
            <mxPoint x="810" y="100" as="targetPoint" />
          </mxGeometry>
        </mxCell>
        <mxCell id="WJAeF4iGQMadBWUu6b0e-32" value="&lt;ul&gt;&lt;li&gt;离开天数&amp;gt;N天的用户&lt;/li&gt;&lt;li&gt;如果新增但是spin次数在deal1范围内会进行新机台赠送判定,deal为deal-1新用户&lt;/li&gt;&lt;/ul&gt;" style="text;strokeColor=none;fillColor=none;html=1;whiteSpace=wrap;verticalAlign=middle;overflow=hidden;" vertex="1" parent="WIyWlLk6GJQsqaUBKTNV-1">
          <mxGeometry x="880" width="240" height="100" as="geometry" />
        </mxCell>
        <mxCell id="WJAeF4iGQMadBWUu6b0e-35" style="edgeStyle=orthogonalEdgeStyle;orthogonalLoop=1;jettySize=auto;html=1;entryX=0;entryY=1;entryDx=0;entryDy=0;curved=1;fillColor=#f8cecc;strokeColor=#b85450;dashed=1;" edge="1" parent="WIyWlLk6GJQsqaUBKTNV-1" source="WJAeF4iGQMadBWUu6b0e-33" target="WJAeF4iGQMadBWUu6b0e-20">
          <mxGeometry relative="1" as="geometry" />
        </mxCell>
        <mxCell id="WJAeF4iGQMadBWUu6b0e-33" value="&lt;ul&gt;&lt;li&gt;现在utc0-8:00的周四~周一不存在新机台&lt;/li&gt;&lt;li&gt;用户等级&amp;lt;N级不存在新机台&lt;/li&gt;&lt;/ul&gt;" style="text;strokeColor=none;fillColor=none;html=1;whiteSpace=wrap;verticalAlign=middle;overflow=hidden;" vertex="1" parent="WIyWlLk6GJQsqaUBKTNV-1">
          <mxGeometry x="460" y="340" width="240" height="100" as="geometry" />
        </mxCell>
        <mxCell id="WJAeF4iGQMadBWUu6b0e-34" style="edgeStyle=orthogonalEdgeStyle;orthogonalLoop=1;jettySize=auto;html=1;entryX=0.833;entryY=0.75;entryDx=0;entryDy=0;entryPerimeter=0;dashed=1;curved=1;fillColor=#f8cecc;strokeColor=#b85450;" edge="1" parent="WIyWlLk6GJQsqaUBKTNV-1" source="WJAeF4iGQMadBWUu6b0e-33" target="WJAeF4iGQMadBWUu6b0e-1">
          <mxGeometry relative="1" as="geometry" />
        </mxCell>
      </root>
    </mxGraphModel>
  </diagram>
</mxfile>
